<svg width="358" height="241" viewBox="0 0 358 241" fill="none" xmlns="http://www.w3.org/2000/svg">
<g clip-path="url(#clip0_854_658)">
<path d="M327.472 84.323C327.096 84.6301 326.72 84.9239 326.335 85.2132H231.417C230.71 84.9239 230.006 84.6272 229.305 84.323C219.285 79.9849 209.958 74.2083 201.623 67.1776C196.088 62.5129 190.996 57.6969 187.305 53.1835C182.155 46.8853 177.412 40.0217 175.206 32.2013C173.005 24.3808 173.663 15.4163 178.58 8.93116C180.103 6.93623 181.974 5.23089 184.106 3.89703C184.459 3.67447 184.817 3.46083 185.184 3.26053C191.081 -0.0332467 198.522 -0.83444 205.162 0.870312C214.67 3.31394 222.571 10.1374 228.209 18.1404C233.847 26.1389 237.507 35.3259 241.113 44.4105C244.773 28.1953 255.856 13.6715 270.827 6.28724C285.794 -1.09705 304.389 -1.00803 319.038 6.99051C323.647 9.52244 327.81 12.7848 331.364 16.6493C331.718 17.0276 332.063 17.4149 332.402 17.8066C339.548 26.0365 344.018 36.5766 344.385 47.4461C344.855 61.4491 338.331 75.5144 327.472 84.323Z" fill="#CAF2D4"/>
<path d="M235.211 85.2132H233.869C233.851 84.915 233.829 84.6212 233.802 84.323C233.333 78.5008 232.351 72.7308 230.867 67.0796C227.462 54.1777 221.647 42.0285 213.726 31.2664C205.826 20.4699 195.868 11.3258 184.419 4.35541C184.335 4.30767 184.263 4.24157 184.209 4.16213C184.155 4.08269 184.12 3.99201 184.106 3.89695C184.084 3.77265 184.098 3.64472 184.146 3.52807C184.195 3.41141 184.275 3.31084 184.379 3.23807C184.483 3.16529 184.605 3.12332 184.732 3.11704C184.858 3.11075 184.984 3.14042 185.095 3.20259C185.125 3.22029 185.155 3.2396 185.184 3.26044C191.671 7.19364 197.692 11.8401 203.135 17.1121C212.871 26.56 220.721 37.7556 226.272 50.1078C231.168 60.9259 234.168 72.4981 235.14 84.323C235.167 84.6212 235.189 84.9194 235.211 85.2132Z" fill="white"/>
<path d="M332.402 17.8064C332.393 17.8114 332.382 17.8145 332.371 17.8153C331.391 17.9934 330.407 18.1803 329.431 18.3806C321.425 20.0164 313.587 22.384 306.017 25.4533C298.468 28.5183 291.206 32.2421 284.317 36.581C277.419 40.9176 270.914 45.8443 264.876 51.305C258.838 56.7579 253.299 62.734 248.325 69.1627C244.608 73.9793 241.228 79.0447 238.209 84.3229C238.039 84.6167 237.873 84.9149 237.708 85.2131H236.173C236.334 84.9149 236.5 84.6167 236.67 84.3229C240.322 77.8555 244.509 71.7021 249.189 65.9267C254.364 59.535 260.1 53.614 266.33 48.2338C272.52 42.8839 279.164 38.0767 286.187 33.8658C293.239 29.6379 300.654 26.0393 308.344 23.1121C315.807 20.274 323.511 18.1109 331.364 16.6492C331.584 16.6091 331.798 16.569 332.018 16.529C332.854 16.3776 333.212 17.6328 332.402 17.8064Z" fill="white"/>
<path d="M88.4482 87.8594C90.8351 83.3769 91.2292 77.5387 88.2612 73.4139C86.4944 70.9586 83.7358 69.3468 80.8414 68.4378C77.9469 67.5287 74.8934 67.2615 71.8662 67.0405C68.8696 66.8218 65.8197 66.6468 62.8924 67.321C59.9652 67.9952 57.1298 69.6423 55.7038 72.2733C53.2949 76.7179 55.4893 82.417 53.7199 87.1498C52.0962 91.493 47.475 94.0322 42.9322 95.0569C38.3894 96.0816 33.6479 95.9726 29.1029 96.9873C24.5579 98.0021 19.9289 100.518 18.2764 104.85C17.0815 107.983 17.6752 111.592 19.2498 114.554C20.8244 117.516 23.2905 119.915 25.9081 122.024C29.8132 125.17 34.3819 127.864 39.3995 128.137C44.6865 128.424 49.8561 125.921 53.6614 122.258C57.4666 118.595 60.0573 113.862 62.1271 109.014C63.4401 105.938 64.6807 102.628 67.3121 100.551C69.2456 99.0252 71.7048 98.3566 74.0898 97.7242L76.7904 97.0081C79.2376 96.3712 81.5278 95.2429 83.5203 93.6926C85.5128 92.1423 87.1653 90.2028 88.3763 87.9935C88.4004 87.9489 88.4244 87.9042 88.4482 87.8594Z" fill="#1E293B"/>
<path d="M67.1501 235.311H61.665L59.0552 214.263H67.1515L67.1501 235.311Z" fill="#FFB8B8"/>
<path d="M57.7465 233.752H68.3256V240.378H51.0857C51.0857 239.508 51.258 238.646 51.5927 237.842C51.9275 237.039 52.4181 236.308 53.0366 235.693C53.6551 235.077 54.3894 234.589 55.1975 234.256C56.0057 233.923 56.8718 233.752 57.7465 233.752Z" fill="#2F2E41"/>
<path d="M112.788 235.311H107.303L104.693 214.263H112.789L112.788 235.311Z" fill="#FFB8B8"/>
<path d="M103.385 233.752H113.964V240.378H96.7239C96.7239 239.508 96.8962 238.646 97.2309 237.842C97.5656 237.039 98.0563 236.308 98.6748 235.693C99.2933 235.077 100.028 234.589 100.836 234.256C101.644 233.923 102.51 233.752 103.385 233.752Z" fill="#2F2E41"/>
<path d="M77.6947 218.582C77.6182 218.582 77.5417 218.578 77.4656 218.57L55.1489 216.191C54.8525 216.16 54.5663 216.066 54.3092 215.915C54.0522 215.765 53.8303 215.562 53.6583 215.32C53.4863 215.078 53.3682 214.802 53.3117 214.511C53.2552 214.22 53.2617 213.92 53.3308 213.631L73.0905 138.867C73.1831 138.487 73.3806 138.139 73.6609 137.865C73.9412 137.59 74.2931 137.399 74.6768 137.313L93.0072 132.229C93.3748 132.149 93.7572 132.168 94.115 132.284C94.4728 132.4 94.793 132.609 95.0424 132.889C106.828 146.113 115.709 175.428 122.437 212.378C122.488 212.657 122.481 212.943 122.417 213.219C122.353 213.495 122.233 213.756 122.065 213.984C121.897 214.213 121.683 214.405 121.438 214.549C121.193 214.693 120.92 214.786 120.638 214.822L102.352 217.144C101.834 217.211 101.309 217.083 100.88 216.784C100.452 216.485 100.152 216.038 100.039 215.53L91.1421 176.072C91.0603 175.709 90.8556 175.385 90.5622 175.154C90.2688 174.923 89.9046 174.799 89.5304 174.803C89.1563 174.808 88.7951 174.94 88.5071 175.177C88.2192 175.415 88.022 175.744 87.9486 176.109L79.7471 216.903C79.6542 217.376 79.3986 217.803 79.0241 218.109C78.6496 218.416 78.1796 218.583 77.6947 218.582Z" fill="#1E293B"/>
<path d="M74.3002 98.1257C80.3694 98.1257 85.2896 93.2312 85.2896 87.1935C85.2896 81.1558 80.3694 76.2612 74.3002 76.2612C68.2309 76.2612 63.3108 81.1558 63.3108 87.1935C63.3108 93.2312 68.2309 98.1257 74.3002 98.1257Z" fill="#FFB8B8"/>
<path d="M73.9932 139.077C73.5312 139.077 73.0823 138.925 72.7164 138.644C72.3505 138.363 72.0882 137.97 71.9702 137.526L65.359 112.818C64.8818 111.043 65.0794 109.155 65.914 107.515C66.7486 105.876 68.1616 104.6 69.8826 103.932C75.2043 101.866 80.2745 101.099 84.9522 101.653C89.1097 102.146 94.2385 126.631 93.8992 127.154L95.5398 132.05C95.6329 132.327 95.6662 132.621 95.6376 132.913C95.6091 133.204 95.5193 133.486 95.374 133.74C95.2288 133.995 95.0314 134.216 94.7947 134.39C94.5579 134.564 94.287 134.686 93.9997 134.749L74.4492 139.028C74.2994 139.06 74.1465 139.077 73.9932 139.077Z" fill="#CCCCCC"/>
<path d="M79.9181 164.344C80.0123 163.858 79.9981 163.357 79.8766 162.877C79.7551 162.397 79.5293 161.949 79.215 161.565C78.9007 161.181 78.5055 160.87 78.0574 160.654C77.6093 160.439 77.1191 160.323 76.6213 160.316L72.8124 148.891L68.9194 153.803L73.1333 163.9C73.1772 164.733 73.5266 165.52 74.1153 166.114C74.704 166.707 75.491 167.065 76.3273 167.12C77.1637 167.175 77.9911 166.923 78.6529 166.411C79.3147 165.899 79.7649 165.164 79.9181 164.344Z" fill="#FFB8B8"/>
<path d="M128.888 136.885C128.66 136.445 128.338 136.06 127.944 135.757C127.551 135.454 127.095 135.241 126.609 135.132C126.123 135.023 125.62 135.022 125.133 135.128C124.647 135.233 124.19 135.444 123.794 135.745L113.702 129.103L113.693 135.358L123.278 140.707C123.83 141.334 124.594 141.739 125.425 141.843C126.257 141.948 127.098 141.746 127.79 141.275C128.481 140.804 128.975 140.097 129.178 139.288C129.38 138.479 129.277 137.624 128.888 136.885Z" fill="#FFB8B8"/>
<path d="M71.9326 159.065C71.4912 159.066 71.0611 158.927 70.7033 158.67C70.3455 158.413 70.0783 158.05 69.9398 157.633L61.0105 138.842C60.6443 137.741 60.4577 136.589 60.458 135.429L63.1426 111.005C63.1425 109.638 63.667 108.322 64.6091 107.326C65.5512 106.33 66.8398 105.73 68.2119 105.647C69.584 105.565 70.9361 106.006 71.9921 106.881C73.0482 107.757 73.7285 109 73.8944 110.358L69.787 138.235L76.3414 155.345C76.4451 155.8 76.3921 156.277 76.1911 156.698C75.99 157.12 75.6524 157.462 75.2325 157.67L72.8709 158.845C72.5796 158.99 72.2583 159.066 71.9326 159.065Z" fill="#CCCCCC"/>
<path d="M119.621 139.352C119.293 139.352 118.969 139.275 118.675 139.128L100.918 130.204C99.8766 129.682 98.9266 128.997 98.1038 128.175L80.7716 110.877C79.8012 109.908 79.239 108.608 79.1997 107.241C79.1604 105.874 79.647 104.544 80.5601 103.522C81.4733 102.5 82.7441 101.863 84.1132 101.741C85.4823 101.62 86.8464 102.023 87.9271 102.868L106.702 123.611L121.585 133.011C121.982 133.261 122.283 133.636 122.44 134.075C122.596 134.515 122.6 134.995 122.45 135.437L121.611 137.928C121.471 138.343 121.204 138.703 120.847 138.959C120.49 139.214 120.061 139.352 119.621 139.352Z" fill="#CCCCCC"/>
<path d="M61.8003 81.5414C63.667 83.9707 66.3504 85.6505 69.3597 86.2734C72.41 86.9005 75.5846 86.448 78.3352 84.9941C80.5485 83.8045 82.3196 82.019 84.0543 80.2612C84.7782 79.5276 85.5493 78.6815 85.5129 77.6807C85.4565 76.1301 83.5826 75.2824 81.9743 74.9442C76.6953 73.8486 71.2022 74.4632 66.2996 76.6978C64.1162 77.7068 61.8412 79.5322 62.169 81.8013" fill="#2F2E41"/>
<path d="M350.394 84.323H134.732C132.715 84.3258 130.782 85.124 129.356 86.5424C127.93 87.9608 127.128 89.8838 127.125 91.8898V174.679C127.128 176.685 127.93 178.608 129.356 180.027C130.782 181.445 132.715 182.243 134.732 182.246H350.394C352.41 182.243 354.343 181.445 355.769 180.027C357.195 178.608 357.997 176.685 358 174.679V91.8898C357.997 89.8838 357.195 87.9608 355.769 86.5424C354.343 85.124 352.41 84.3258 350.394 84.323ZM357.105 174.679C357.103 176.449 356.395 178.146 355.137 179.398C353.879 180.65 352.173 181.354 350.394 181.356H134.732C132.952 181.354 131.246 180.65 129.988 179.398C128.73 178.146 128.022 176.449 128.02 174.679V91.8898C128.022 90.1197 128.73 88.4227 129.988 87.1711C131.246 85.9195 132.952 85.2154 134.732 85.2132H350.394C352.173 85.2154 353.879 85.9195 355.137 87.1711C356.395 88.4227 357.103 90.1197 357.105 91.8898V174.679Z" fill="#3F3D56"/>
<path d="M173.888 159.101C168.755 159.101 163.738 157.587 159.47 154.75C155.203 151.913 151.877 147.881 149.912 143.164C147.948 138.447 147.434 133.256 148.436 128.248C149.437 123.24 151.909 118.64 155.538 115.03C159.167 111.419 163.791 108.961 168.825 107.965C173.859 106.968 179.077 107.48 183.819 109.434C188.561 111.388 192.614 114.697 195.466 118.942C198.317 123.187 199.839 128.179 199.839 133.285C199.831 140.129 197.095 146.691 192.23 151.531C187.365 156.371 180.768 159.093 173.888 159.101ZM173.888 108.359C168.932 108.359 164.088 109.821 159.968 112.559C155.847 115.298 152.636 119.191 150.739 123.746C148.843 128.301 148.347 133.312 149.313 138.147C150.28 142.983 152.667 147.424 156.171 150.91C159.675 154.396 164.139 156.77 169 157.732C173.86 158.693 178.898 158.2 183.477 156.313C188.055 154.427 191.968 151.232 194.722 147.133C197.475 143.034 198.944 138.214 198.944 133.285C198.937 126.676 196.294 120.341 191.597 115.668C186.9 110.995 180.531 108.366 173.888 108.359Z" fill="#3F3D56"/>
<path d="M331.148 116.816H227.791C226.347 116.817 224.958 117.374 223.917 118.37C222.876 119.367 222.264 120.725 222.207 122.161C222.2 122.234 222.197 122.307 222.198 122.379C222.2 123.854 222.79 125.268 223.839 126.311C224.887 127.354 226.309 127.941 227.791 127.943H331.148C332.631 127.943 334.054 127.357 335.103 126.314C336.152 125.27 336.741 123.855 336.741 122.379C336.741 120.904 336.152 119.489 335.103 118.445C334.054 117.402 332.631 116.816 331.148 116.816Z" fill="#2B8761"/>
<path d="M331.148 138.626H227.791C226.347 138.627 224.958 139.184 223.917 140.18C222.876 141.177 222.264 142.536 222.207 143.972C222.2 144.044 222.197 144.117 222.198 144.19C222.2 145.665 222.79 147.079 223.839 148.122C224.887 149.165 226.309 149.752 227.791 149.754H331.148C332.631 149.754 334.054 149.167 335.103 148.124C336.152 147.081 336.741 145.665 336.741 144.19C336.741 142.714 336.152 141.299 335.103 140.256C334.054 139.212 332.631 138.626 331.148 138.626Z" fill="#2B8761"/>
<path d="M170.993 144.564C170.269 144.566 169.564 144.333 168.984 143.901L168.949 143.874L161.385 138.113C161.035 137.846 160.741 137.513 160.52 137.133C160.299 136.753 160.156 136.334 160.098 135.898C160.04 135.463 160.069 135.021 160.182 134.597C160.296 134.173 160.493 133.775 160.762 133.427C161.03 133.078 161.365 132.786 161.747 132.566C162.129 132.346 162.55 132.204 162.988 132.146C163.425 132.088 163.87 132.117 164.296 132.23C164.723 132.344 165.122 132.539 165.473 132.806L170.372 136.543L181.949 121.524C182.217 121.175 182.552 120.883 182.934 120.663C183.316 120.444 183.738 120.301 184.175 120.244C184.613 120.186 185.057 120.215 185.484 120.328C185.91 120.442 186.31 120.638 186.66 120.905L186.588 121.002L186.662 120.906C187.368 121.446 187.83 122.243 187.947 123.122C188.063 124 187.825 124.889 187.284 125.593L173.666 143.26C173.351 143.667 172.946 143.996 172.483 144.223C172.019 144.449 171.509 144.566 170.993 144.564Z" fill="#2B8761"/>
<path d="M170.919 241H0.447432C0.328765 241 0.214959 240.953 0.131049 240.87C0.0471397 240.786 0 240.673 0 240.555C0 240.437 0.0471397 240.324 0.131049 240.24C0.214959 240.157 0.328765 240.11 0.447432 240.11H170.919C171.038 240.11 171.151 240.157 171.235 240.24C171.319 240.324 171.366 240.437 171.366 240.555C171.366 240.673 171.319 240.786 171.235 240.87C171.151 240.953 171.038 241 170.919 241Z" fill="#3F3D56"/>
<path d="M305.711 64.2707C296.364 62.9918 286.872 63.2047 277.592 64.9014C268.34 66.5841 259.407 69.6909 251.116 74.1099C246.457 76.6005 242.035 79.507 237.904 82.7936C237.229 83.3299 238.185 84.2692 238.853 83.7378C246.102 78.0021 254.226 73.4585 262.919 70.2798C271.544 67.1067 280.609 65.2773 289.794 64.8561C294.992 64.6187 300.2 64.8537 305.354 65.5583C305.526 65.5992 305.706 65.5737 305.86 65.4872C306.013 65.4006 306.127 65.2594 306.18 65.092C306.226 64.9213 306.203 64.7393 306.115 64.5856C306.027 64.4318 305.882 64.3187 305.711 64.2707Z" fill="white"/>
</g>
<defs>
<clipPath id="clip0_854_658">
<rect width="358" height="241" fill="white"/>
</clipPath>
</defs>
</svg>
