<svg width="273" height="121" viewBox="0 0 273 121" fill="none" xmlns="http://www.w3.org/2000/svg">
<path d="M136.5 108.152C211.887 108.152 273 106.686 273 104.877C273 103.068 211.887 101.602 136.5 101.602C61.1131 101.602 0 103.068 0 104.877C0 106.686 61.1131 108.152 136.5 108.152Z" fill="#E6E6E6"/>
<path d="M147.712 69.3927V65.5305H125.2V65.7721V69.3927V100.531V104.394H129.702H147.712V100.531H129.702V69.3927H147.712Z" fill="#1E293B"/>
<path d="M158.686 65.5305V104.394H181.198V65.5305H158.686ZM176.695 100.531H163.188V69.3927H176.695V100.531Z" fill="#2B8761"/>
<path d="M96.2156 100.531V65.772H91.7131V100.531V104.394H96.2156H114.225V100.531H96.2156Z" fill="#2B8761"/>
<path d="M81.5829 69.3927V65.5305H59.071V65.7721V69.3927V82.9104V86.7726V100.531V104.394H63.5735H81.5829V100.531H63.5735V86.7726H81.5829V82.9104H63.5735V69.3927H81.5829Z" fill="#1E293B"/>
<path d="M257.738 69.3927V65.5305H235.226V65.7721V69.3927V82.9104V86.7726V100.531V104.394H239.729H257.738V100.531H239.729V86.7726H257.738V82.9104H239.729V69.3927H257.738Z" fill="#2B8761"/>
<path d="M43.8756 65.772V97.692L32.0043 87.509L31.9773 87.5324L31.9521 87.5108L19.8162 97.9211V65.6514H15.3137V104.273H19.8162V103.383L31.9794 92.9492L43.8756 103.154V104.394H48.378V65.772H43.8756Z" fill="#1E293B"/>
<path d="M220.312 65.772V66.6618L208.149 77.0955L196.252 66.8909V65.6514H191.75V104.273H196.252V72.3528L208.124 82.536L208.151 82.5126L208.176 82.5339L220.312 72.1236V104.394H224.814V65.772H220.312Z" fill="#1E293B"/>
<path d="M102.889 41.9804C104.415 41.9804 105.652 40.9191 105.652 39.6098C105.652 38.3006 104.415 37.2393 102.889 37.2393C101.362 37.2393 100.125 38.3006 100.125 39.6098C100.125 40.9191 101.362 41.9804 102.889 41.9804Z" fill="#2B8761"/>
<path d="M34.7211 68.3203C36.2473 68.3203 37.4846 67.2589 37.4846 65.9497C37.4846 64.6405 36.2473 63.5791 34.7211 63.5791C33.1948 63.5791 31.9575 64.6405 31.9575 65.9497C31.9575 67.2589 33.1948 68.3203 34.7211 68.3203Z" fill="#2B8761"/>
<path d="M89.3778 121C90.9041 121 92.1413 119.939 92.1413 118.629C92.1413 117.32 90.9041 116.259 89.3778 116.259C87.8515 116.259 86.6143 117.32 86.6143 118.629C86.6143 119.939 87.8515 121 89.3778 121Z" fill="#2B8761"/>
<path d="M158.774 49.0923C160.3 49.0923 161.537 48.0309 161.537 46.7217C161.537 45.4124 160.3 44.3511 158.774 44.3511C157.247 44.3511 156.01 45.4124 156.01 46.7217C156.01 48.0309 157.247 49.0923 158.774 49.0923Z" fill="#2B8761"/>
<path d="M240.144 118.893C241.671 118.893 242.908 117.831 242.908 116.522C242.908 115.213 241.671 114.152 240.144 114.152C238.618 114.152 237.381 115.213 237.381 116.522C237.381 117.831 238.618 118.893 240.144 118.893Z" fill="#2B8761"/>
<path d="M242.908 56.7307C244.434 56.7307 245.672 55.6693 245.672 54.3601C245.672 53.0509 244.434 51.9895 242.908 51.9895C241.382 51.9895 240.145 53.0509 240.145 54.3601C240.145 55.6693 241.382 56.7307 242.908 56.7307Z" fill="#2B8761"/>
<path d="M207.903 99.4013C209.429 99.4013 210.667 98.34 210.667 97.0307C210.667 95.7215 209.429 94.6602 207.903 94.6602C206.377 94.6602 205.14 95.7215 205.14 97.0307C205.14 98.34 206.377 99.4013 207.903 99.4013Z" fill="#2B8761"/>
</svg>
